<!-- Generated by IcoMoon.io -->
<svg version="1.1" xmlns="http://www.w3.org/2000/svg" width="1703" height="1024" viewBox="0 0 1703 1024">
<title></title>
<g id="icomoon-ignore">
</g>
<path fill="#1db5be" opacity="0.6" d="M1178.901 647.982c0 54.856-44.47 99.326-99.326 99.326s-99.326-44.47-99.326-99.326c0-54.856 44.47-99.326 99.326-99.326s99.326 44.47 99.326 99.326z"></path>
<path fill="#75e3ea" d="M1489.885 702.38l496.628-62.099v75.677l-496.628 62.099v-75.677z"></path>
<path fill="#c4b5fd" d="M979.067 691.505l723.658-90.821v75.677l-723.658 90.821v-75.677z"></path>
<path fill="#ede9fe" d="M1168.259 591.835l496.628-62.099v75.677l-496.628 62.099v-75.677z"></path>
<path fill="#75e3ea" d="M0 813.543l496.628-62.099v75.677l-496.628 62.099v-75.677z"></path>
<path fill="#ede9fe" d="M-179.732 911.673l496.628-62.099v75.677l-496.628 62.099v-75.677z"></path>
</svg>
