<svg width="78" height="22" viewBox="0 0 78 22" fill="none" xmlns="http://www.w3.org/2000/svg">
<path d="M4.1713 13.48V0.999987H0.51416V17H9.88559V13.48H4.1713Z" fill="black"/>
<path d="M19.5676 5.57142V6.6457C18.8133 5.77713 17.6933 5.25142 16.1618 5.25142C13.1676 5.25142 10.699 7.87999 10.699 11.2857C10.699 14.6914 13.1676 17.32 16.1618 17.32C17.6933 17.32 18.8133 16.7943 19.5676 15.9257V17H22.9961V5.57142H19.5676ZM16.8476 14.0743C15.2704 14.0743 14.1276 13 14.1276 11.2857C14.1276 9.57142 15.2704 8.49713 16.8476 8.49713C18.4247 8.49713 19.5676 9.57142 19.5676 11.2857C19.5676 13 18.4247 14.0743 16.8476 14.0743Z" fill="black"/>
<path d="M32.2086 5.25142C30.7 5.25142 29.5572 5.79999 28.94 6.6457V5.57142H25.5115V17H28.94V10.76C28.94 9.13713 29.8086 8.4057 31.0658 8.4057C32.1629 8.4057 33.0543 9.06856 33.0543 10.4857V17H36.4829V9.98285C36.4829 6.89713 34.5172 5.25142 32.2086 5.25142Z" fill="black"/>
<path d="M47.1345 0.999987V6.6457C46.3802 5.77713 45.2602 5.25142 43.7288 5.25142C40.7345 5.25142 38.2659 7.87999 38.2659 11.2857C38.2659 14.6914 40.7345 17.32 43.7288 17.32C45.2602 17.32 46.3802 16.7943 47.1345 15.9257V17H50.5631V0.999987H47.1345ZM44.4145 14.0743C42.8374 14.0743 41.6945 13 41.6945 11.2857C41.6945 9.57142 42.8374 8.49713 44.4145 8.49713C45.9916 8.49713 47.1345 9.57142 47.1345 11.2857C47.1345 13 45.9916 14.0743 44.4145 14.0743Z" fill="black"/>
<path d="M54.7927 4.5657C55.9127 4.5657 56.8499 3.62856 56.8499 2.50856C56.8499 1.38856 55.9127 0.451416 54.7927 0.451416C53.6727 0.451416 52.7356 1.38856 52.7356 2.50856C52.7356 3.62856 53.6727 4.5657 54.7927 4.5657ZM53.0784 17H56.507V5.57142H53.0784V17Z" fill="black"/>
<path d="M65.3016 3.97142V0.679987C61.5074 0.451416 59.7474 2.37142 59.7474 5.57142H58.2159V8.86285H59.7474V17H63.1759V8.86285H65.3016V5.57142H63.1759C63.1759 4.2457 64.0216 3.85713 65.3016 3.97142Z" fill="black"/>
<path d="M74.207 5.57142L72.0584 12.5657L69.5213 5.57142H65.7499L70.2984 16.4743C69.7956 17.8686 69.0413 18.3714 67.4413 18.3714V21.5714C70.6413 21.7314 72.6756 20.2914 73.9556 16.6571L77.8642 5.57142H74.207Z" fill="black"/>
</svg>
