<!-- Generated by IcoMoon.io -->
<svg version="1.1" xmlns="http://www.w3.org/2000/svg" width="349" height="1024" viewBox="0 0 349 1024">
<title></title>
<g id="icomoon-ignore">
</g>
<path fill="#1db5be" opacity="0.6" d="M242.036 647.447c0 54.755-9.169 99.142-20.48 99.142s-20.48-44.387-20.48-99.142c0-54.755 9.169-99.142 20.48-99.142s20.48 44.387 20.48 99.142z"></path>
<path fill="#75e3ea" d="M305.455 702.38l101.818-62.099v75.676l-101.818 62.099v-75.676z"></path>
<path fill="#c4b5fd" d="M200.727 691.505l148.364-90.821v75.676l-148.364 90.821v-75.676z"></path>
<path fill="#ede9fe" d="M239.515 591.836l101.818-62.099v75.676l-101.818 62.099v-75.676z"></path>
<path fill="#75e3ea" d="M0 813.543l101.818-62.098v75.676l-101.818 62.098v-75.676z"></path>
<path fill="#ede9fe" d="M-36.848 911.673l101.818-62.098v75.676l-101.818 62.099v-75.677z"></path>
</svg>
