<!-- Generated by IcoMoon.io -->
<svg version="1.1" xmlns="http://www.w3.org/2000/svg" width="715" height="1024" viewBox="0 0 715 1024">
<title></title>
<g id="icomoon-ignore">
</g>
<path fill="#1db5be" opacity="0.6" d="M495.244 647.447c0 54.755-18.755 99.142-41.891 99.142s-41.891-44.387-41.891-99.142c0-54.755 18.755-99.142 41.891-99.142s41.891 44.387 41.891 99.142z"></path>
<path fill="#75e3ea" d="M625.571 702.38l208.524-62.099v75.676l-208.524 62.099v-75.676z"></path>
<path fill="#c4b5fd" d="M411.089 691.505l303.849-90.821v75.676l-303.849 90.821v-75.676z"></path>
<path fill="#ede9fe" d="M490.527 591.836l208.524-62.099v75.676l-208.524 62.099v-75.676z"></path>
<path fill="#75e3ea" d="M0 813.543l208.524-62.098v75.676l-208.524 62.098v-75.676z"></path>
<path fill="#ede9fe" d="M-75.466 911.673l208.523-62.098v75.676l-208.523 62.099v-75.677z"></path>
</svg>
